<?xml version="1.0" encoding="UTF-8" standalone="no"?>
<!DOCTYPE svg PUBLIC "-//W3C//DTD SVG 1.1//EN" "http://www.w3.org/Graphics/SVG/1.1/DTD/svg11.dtd">
<svg width="100%" height="100%" viewBox="0 0 128 128" version="1.1" xmlns="http://www.w3.org/2000/svg" xmlns:xlink="http://www.w3.org/1999/xlink" xml:space="preserve" xmlns:serif="http://www.serif.com/" style="fill-rule:evenodd;clip-rule:evenodd;stroke-linejoin:round;stroke-miterlimit:2;">
    <path d="M79.224,4l44.776,0l0,120l-120,-0l-0,-120l44.776,0c0.067,8.346 6.863,15.101 15.224,15.101c8.361,-0 15.157,-6.755 15.224,-15.101Z" style="fill:#654ff0;"/>
    <path d="M16.839,114.076l7.867,-45.995l26.394,-0l-1.318,7.687l-18.625,-0l-1.898,11.044l18.233,-0l-1.318,7.686l-18.236,0l-3.364,19.578l-7.735,0Zm32.19,0l7.868,-45.995l26.393,-0l-1.317,7.687l-18.625,-0l-1.898,11.044l18.232,-0l-1.317,7.686l-18.236,0l-3.365,19.578l-7.735,0Zm48.366,0l-7.735,0l6.598,-38.308l-11.336,-0l1.318,-7.687l29.963,-0l-1.318,7.687l-10.892,-0l-6.598,38.308Z" style="fill:#fff;"/>
</svg>
